<svg xmlns="http://www.w3.org/2000/svg" xmlns:xlink="http://www.w3.org/1999/xlink" width="428" zoomAndPan="magnify" viewBox="0 0 321 72.749999" height="97" preserveAspectRatio="xMidYMid meet" version="1.0"><defs><g/><clipPath id="54e2dd6c88"><path d="M 17 31 L 82.019531 31 L 82.019531 42 L 17 42 Z M 17 31 " clip-rule="nonzero"/></clipPath><clipPath id="3b4993da44"><path d="M 29 6 L 82.019531 6 L 82.019531 17 L 29 17 Z M 29 6 " clip-rule="nonzero"/></clipPath><clipPath id="221c6c8683"><path d="M 56 18 L 82.019531 18 L 82.019531 29 L 56 29 Z M 56 18 " clip-rule="nonzero"/></clipPath><clipPath id="3f22b2cff3"><path d="M 0.550781 31 L 13 31 L 13 42 L 0.550781 42 Z M 0.550781 31 " clip-rule="nonzero"/></clipPath><clipPath id="8378a28edc"><path d="M 32 43 L 82.019531 43 L 82.019531 54 L 32 54 Z M 32 43 " clip-rule="nonzero"/></clipPath><clipPath id="da1dca0740"><path d="M 37 55 L 82.019531 55 L 82.019531 67 L 37 67 Z M 37 55 " clip-rule="nonzero"/></clipPath><clipPath id="b42632742e"><path d="M 81 0 L 85 0 L 85 72.5 L 81 72.5 Z M 81 0 " clip-rule="nonzero"/></clipPath></defs><g clip-path="url(#54e2dd6c88)"><path fill="#1e2245" d="M 110.621094 31.0625 L 57.957031 31.0625 L 55.707031 34.949219 L 50.5 34.949219 L 48.25 31.0625 C 46.3125 31.0625 22.015625 31.0625 20.074219 31.0625 L 17.167969 36.097656 L 20.074219 41.136719 C 22.015625 41.136719 46.3125 41.136719 48.25 41.136719 L 50.5 37.246094 L 55.707031 37.246094 L 57.957031 41.136719 L 110.621094 41.136719 C 111.199219 37.808594 111.199219 34.398438 110.621094 31.0625 Z M 110.621094 31.0625 " fill-opacity="1" fill-rule="nonzero"/></g><g clip-path="url(#3b4993da44)"><path fill="#1e2245" d="M 38.316406 16.367188 L 40.566406 12.480469 L 45.773438 12.480469 L 48.019531 16.367188 L 103.542969 16.367188 C 93.109375 4.605469 81.402344 6.285156 67.292969 6.285156 L 48.019531 6.285156 L 45.773438 10.171875 L 40.566406 10.171875 L 38.316406 6.285156 L 32.5 6.285156 L 29.589844 11.320312 L 32.5 16.359375 L 38.316406 16.359375 Z M 38.316406 16.367188 " fill-opacity="1" fill-rule="nonzero"/></g><g clip-path="url(#221c6c8683)"><path fill="#1e2245" d="M 73.097656 22.566406 L 67.890625 22.566406 L 65.640625 18.675781 L 59.824219 18.675781 L 56.917969 23.714844 L 59.824219 28.753906 L 65.640625 28.753906 L 67.890625 24.863281 L 73.097656 24.863281 L 75.347656 28.753906 L 110.128906 28.753906 C 109.191406 25.074219 107.5625 21.664062 105.390625 18.667969 L 75.347656 18.667969 Z M 73.097656 22.566406 " fill-opacity="1" fill-rule="nonzero"/></g><g clip-path="url(#3f22b2cff3)"><path fill="#1e2245" d="M 3.464844 31.0625 L 0.554688 36.097656 L 3.464844 41.144531 L 9.289062 41.144531 L 12.199219 36.097656 L 9.289062 31.0625 Z M 3.464844 31.0625 " fill-opacity="1" fill-rule="nonzero"/></g><path fill="#1e2245" d="M 40.304688 23.714844 L 43.214844 28.753906 L 49.039062 28.753906 L 51.949219 23.714844 L 49.039062 18.675781 L 43.214844 18.675781 Z M 40.304688 23.714844 " fill-opacity="1" fill-rule="nonzero"/><path fill="#1e2245" d="M 23.34375 55.828125 L 20.425781 60.875 L 23.34375 65.914062 L 29.160156 65.914062 L 32.070312 60.875 L 29.160156 55.828125 Z M 23.34375 55.828125 " fill-opacity="1" fill-rule="nonzero"/><g clip-path="url(#8378a28edc)"><path fill="#1e2245" d="M 48.25 47.332031 L 43.042969 47.332031 L 40.792969 43.445312 L 34.976562 43.445312 L 32.070312 48.480469 L 34.976562 53.519531 L 40.792969 53.519531 L 43.042969 49.632812 L 48.25 49.632812 L 50.5 53.519531 L 105.382812 53.519531 C 107.550781 50.519531 109.179688 47.113281 110.121094 43.433594 C 91.898438 43.433594 68.710938 43.433594 50.488281 43.433594 Z M 48.25 47.332031 " fill-opacity="1" fill-rule="nonzero"/></g><g clip-path="url(#da1dca0740)"><path fill="#1e2245" d="M 63.164062 59.726562 L 57.957031 59.726562 L 55.707031 55.839844 C 50.460938 55.839844 45.203125 55.839844 39.945312 55.839844 L 37.035156 60.875 L 39.945312 65.914062 C 45.203125 65.914062 50.449219 65.914062 55.707031 65.914062 L 57.957031 62.023438 L 63.164062 62.023438 L 65.414062 65.914062 C 80.316406 65.914062 92.839844 67.902344 103.542969 55.828125 L 65.414062 55.828125 Z M 63.164062 59.726562 " fill-opacity="1" fill-rule="nonzero"/></g><g fill="#1e2245" fill-opacity="1"><g transform="translate(96.972119, 38.912345)"><g><path d="M 16.015625 -24.90625 C 18.691406 -24.90625 20.722656 -24.207031 22.109375 -22.8125 C 23.492188 -21.425781 24.1875 -19.394531 24.1875 -16.71875 L 24.1875 -8.1875 C 24.1875 -5.5 23.492188 -3.460938 22.109375 -2.078125 C 20.722656 -0.691406 18.691406 0 16.015625 0 L 2.140625 0 L 2.140625 -24.90625 Z M 17.78125 -16.71875 C 17.78125 -18.851562 16.71875 -19.921875 14.59375 -19.921875 L 8.53125 -19.921875 L 8.53125 -4.984375 L 14.59375 -4.984375 C 16.71875 -4.984375 17.78125 -6.050781 17.78125 -8.1875 Z M 17.78125 -16.71875 "/></g></g></g><g fill="#1e2245" fill-opacity="1"><g transform="translate(129.711257, 38.912345)"><g><path d="M 13.875 0 L 1.0625 0 L 1.0625 -4.984375 L 4.265625 -4.984375 L 4.265625 -19.921875 L 1.0625 -19.921875 L 1.0625 -24.90625 L 13.875 -24.90625 L 13.875 -19.921875 L 10.671875 -19.921875 L 10.671875 -4.984375 L 13.875 -4.984375 Z M 13.875 0 "/></g></g></g><g fill="#1e2245" fill-opacity="1"><g transform="translate(151.774893, 38.912345)"><g><path d="M 23.484375 -0.53125 C 17.929688 0.0625 12.832031 0.359375 8.1875 0.359375 C 5.863281 0.359375 4.15625 -0.1875 3.0625 -1.28125 C 1.96875 -2.375 1.421875 -4.082031 1.421875 -6.40625 L 1.421875 -17.78125 C 1.421875 -20.28125 1.984375 -22.09375 3.109375 -23.21875 C 4.234375 -24.34375 6.039062 -24.90625 8.53125 -24.90625 L 21.34375 -24.90625 L 21.34375 -19.921875 L 9.96875 -19.921875 C 8.539062 -19.921875 7.828125 -19.207031 7.828125 -17.78125 L 7.828125 -6.40625 C 7.828125 -5.851562 7.984375 -5.414062 8.296875 -5.09375 C 8.617188 -4.78125 9.054688 -4.625 9.609375 -4.625 C 12.335938 -4.625 14.828125 -4.679688 17.078125 -4.796875 L 17.078125 -9.96875 L 12.453125 -9.96875 L 12.453125 -14.234375 L 23.484375 -14.234375 Z M 23.484375 -0.53125 "/></g></g></g><g fill="#1e2245" fill-opacity="1"><g transform="translate(183.802334, 38.912345)"><g><path d="M 13.875 0 L 1.0625 0 L 1.0625 -4.984375 L 4.265625 -4.984375 L 4.265625 -19.921875 L 1.0625 -19.921875 L 1.0625 -24.90625 L 13.875 -24.90625 L 13.875 -19.921875 L 10.671875 -19.921875 L 10.671875 -4.984375 L 13.875 -4.984375 Z M 13.875 0 "/></g></g></g><g fill="#1e2245" fill-opacity="1"><g transform="translate(205.865968, 38.912345)"><g><path d="M 14.234375 0 L 7.828125 0 L 7.828125 -19.921875 L 0.359375 -19.921875 L 0.359375 -24.90625 L 21.703125 -24.90625 L 21.703125 -19.921875 L 14.234375 -19.921875 Z M 14.234375 0 "/></g></g></g><g fill="#1e2245" fill-opacity="1"><g transform="translate(235.046603, 38.912345)"><g><path d="M 6.578125 0 L -0.359375 0 L 9.078125 -24.90625 L 16.1875 -24.90625 L 25.609375 0 L 18.671875 0 L 17.078125 -4.453125 L 8.1875 -4.453125 Z M 9.78125 -9.078125 L 15.46875 -9.078125 L 12.625 -17.4375 Z M 9.78125 -9.078125 "/></g></g></g><g fill="#1e2245" fill-opacity="1"><g transform="translate(267.429904, 38.912345)"><g><path d="M 8.53125 -4.984375 L 21.53125 -4.984375 L 21.53125 0 L 2.140625 0 L 2.140625 -24.90625 L 8.53125 -24.90625 Z M 8.53125 -4.984375 "/></g></g></g><g fill="#1e2245" fill-opacity="1"><g transform="translate(99.031689, 63.818511)"><g><path d="M 10.65625 -0.234375 C 8.132812 0.0234375 5.820312 0.15625 3.71875 0.15625 C 2.65625 0.15625 1.875 -0.0859375 1.375 -0.578125 C 0.882812 -1.078125 0.640625 -1.851562 0.640625 -2.90625 L 0.640625 -8.078125 C 0.640625 -9.203125 0.894531 -10.019531 1.40625 -10.53125 C 1.914062 -11.039062 2.738281 -11.296875 3.875 -11.296875 L 9.6875 -11.296875 L 9.6875 -9.03125 L 4.515625 -9.03125 C 3.867188 -9.03125 3.546875 -8.710938 3.546875 -8.078125 L 3.546875 -2.90625 C 3.546875 -2.65625 3.617188 -2.457031 3.765625 -2.3125 C 3.910156 -2.164062 4.109375 -2.09375 4.359375 -2.09375 C 5.597656 -2.09375 6.726562 -2.117188 7.75 -2.171875 L 7.75 -4.515625 L 5.65625 -4.515625 L 5.65625 -6.453125 L 10.65625 -6.453125 Z M 10.65625 -0.234375 "/></g></g></g><g fill="#1e2245" fill-opacity="1"><g transform="translate(119.168993, 63.818511)"><g><path d="M 9.921875 0 L 0.96875 0 L 0.96875 -11.296875 L 9.921875 -11.296875 L 9.921875 -9.03125 L 3.875 -9.03125 L 3.875 -6.859375 L 8.640625 -6.859375 L 8.640625 -4.59375 L 3.875 -4.59375 L 3.875 -2.265625 L 9.921875 -2.265625 Z M 9.921875 0 "/></g></g></g><g fill="#1e2245" fill-opacity="1"><g transform="translate(138.257817, 63.818511)"><g><path d="M 9.921875 0 L 0.96875 0 L 0.96875 -11.296875 L 9.921875 -11.296875 L 9.921875 -9.03125 L 3.875 -9.03125 L 3.875 -6.859375 L 8.640625 -6.859375 L 8.640625 -4.59375 L 3.875 -4.59375 L 3.875 -2.265625 L 9.921875 -2.265625 Z M 9.921875 0 "/></g></g></g><g fill="#1e2245" fill-opacity="1"><g transform="translate(157.34664, 63.818511)"><g><path d="M 3.875 0 L 0.96875 0 L 0.96875 -11.296875 L 3.875 -11.296875 L 3.875 -6.859375 L 5.328125 -6.859375 L 7.84375 -11.296875 L 10.90625 -11.296875 L 7.75 -5.734375 L 10.890625 0 L 7.828125 0 L 5.328125 -4.59375 L 3.875 -4.59375 Z M 3.875 0 "/></g></g></g><g fill="#1e2245" fill-opacity="1"><g transform="translate(177.096815, 63.818511)"><g><path d="M 9.515625 -9.03125 L 3.875 -2.265625 L 9.515625 -2.265625 L 9.515625 0 L 0.328125 0 L 0.328125 -2.265625 L 5.96875 -9.03125 L 0.328125 -9.03125 L 0.328125 -11.296875 L 9.515625 -11.296875 Z M 9.515625 -9.03125 "/></g></g></g><g clip-path="url(#b42632742e)"><path stroke-linecap="round" transform="matrix(0, 0.747432, -0.747432, 0, 84.184853, 0.422793)" fill="none" stroke-linejoin="miter" d="M 2.000418 1.998106 L 93.893244 1.998106 " stroke="#1e2245" stroke-width="4" stroke-opacity="1" stroke-miterlimit="4"/></g></svg>